<svg width="32" height="35" viewBox="0 0 32 35" fill="none" xmlns="http://www.w3.org/2000/svg">
<g id="icon patient">
<path id="Vector" d="M15.772 16.4145C17.8896 16.4145 19.7231 15.655 21.2217 14.1565C22.7197 12.6582 23.4795 10.8249 23.4795 8.70702C23.4795 6.58983 22.72 4.75634 21.2214 3.25756C19.7229 1.75952 17.8894 1 15.772 1C13.6541 1 11.8208 1.75952 10.3225 3.25781C8.82422 4.7561 8.06445 6.58959 8.06445 8.70702C8.06445 10.8249 8.82422 12.6584 10.3225 14.1567C11.8213 15.6548 13.6548 16.4145 15.772 16.4145ZM11.6487 4.58373C12.7983 3.43408 14.147 2.87524 15.772 2.87524C17.3967 2.87524 18.7456 3.43408 19.8955 4.58373C21.0452 5.73363 21.6042 7.08251 21.6042 8.70702C21.6042 10.332 21.0452 11.6806 19.8955 12.8305C18.7456 13.9804 17.3967 14.5393 15.772 14.5393C14.1475 14.5393 12.7988 13.9802 11.6487 12.8305C10.4988 11.6809 9.9397 10.332 9.9397 8.70702C9.9397 7.08251 10.4988 5.73363 11.6487 4.58373Z" fill="#F4F6F5" stroke="#F4F6F5"/>
<path id="Vector_2" d="M29.2581 26.6064C29.2148 25.9829 29.1274 25.3027 28.9988 24.5845C28.8689 23.8608 28.7017 23.1767 28.5015 22.5515C28.2944 21.9053 28.0134 21.2671 27.6655 20.6555C27.3049 20.0207 26.8811 19.468 26.4055 19.0132C25.9082 18.5374 25.2993 18.1548 24.5952 17.8757C23.8936 17.5981 23.116 17.4575 22.2842 17.4575C21.9575 17.4575 21.6416 17.5916 21.0315 17.9888C20.656 18.2336 20.2168 18.5168 19.7266 18.8301C19.3074 19.0972 18.7395 19.3474 18.0381 19.574C17.3538 19.7954 16.6589 19.9077 15.9729 19.9077C15.2874 19.9077 14.5925 19.7954 13.9077 19.574C13.207 19.3477 12.6389 19.0974 12.2205 18.8303C11.7349 18.52 11.2954 18.2368 10.9143 17.9885C10.3047 17.5913 9.98877 17.4573 9.66211 17.4573C8.83008 17.4573 8.05273 17.5981 7.35132 17.876C6.64771 18.1545 6.03857 18.5371 5.54077 19.0134C5.06519 19.4685 4.64136 20.021 4.28101 20.6555C3.93359 21.2671 3.65234 21.905 3.44531 22.5517C3.24536 23.177 3.07812 23.8608 2.94824 24.5845C2.81934 25.3017 2.73218 25.9822 2.68896 26.6072C2.64648 27.2182 2.625 27.8542 2.625 28.4968C2.625 30.1672 3.15601 31.5195 4.20312 32.5168C5.2373 33.5009 6.60547 34 8.26978 34H23.678C25.3418 34 26.71 33.5009 27.7444 32.5168C28.7917 31.5202 29.3228 30.1675 29.3228 28.4966C29.3225 27.8518 29.3008 27.2158 29.2581 26.6064ZM26.4514 31.1582C25.7681 31.8086 24.8608 32.1247 23.6777 32.1247H8.26978C7.08643 32.1247 6.1792 31.8086 5.49609 31.1584C4.82593 30.5205 4.50024 29.6496 4.50024 28.4968C4.50024 27.8972 4.52002 27.3052 4.55957 26.7368C4.59814 26.1792 4.677 25.5666 4.79395 24.9158C4.90942 24.2729 5.0564 23.6697 5.2312 23.1235C5.39893 22.5998 5.62769 22.0813 5.91138 21.5818C6.18213 21.1057 6.49365 20.6973 6.8374 20.3682C7.15894 20.0603 7.56421 19.8083 8.04175 19.6194C8.4834 19.4446 8.97974 19.3489 9.51855 19.3345C9.58423 19.3694 9.70117 19.436 9.89062 19.5596C10.2761 19.8108 10.7205 20.0974 11.2117 20.4111C11.7654 20.7642 12.4788 21.083 13.3311 21.3581C14.2024 21.6399 15.0911 21.783 15.9731 21.783C16.8552 21.783 17.7441 21.6399 18.615 21.3584C19.468 21.0828 20.1812 20.7642 20.7356 20.4106C21.2383 20.0894 21.6702 19.811 22.0557 19.5596C22.2451 19.4363 22.3621 19.3694 22.4277 19.3345C22.9668 19.3489 23.4631 19.4446 23.905 19.6194C24.3823 19.8083 24.7876 20.0605 25.1091 20.3682C25.4529 20.697 25.7644 21.1055 26.0352 21.582C26.3191 22.0813 26.5481 22.6001 26.7156 23.1233C26.8906 23.6702 27.0378 24.2732 27.1531 24.9155C27.2698 25.5676 27.3489 26.1804 27.3875 26.737V26.7375C27.4272 27.3037 27.4473 27.8955 27.4475 28.4968C27.4473 29.6499 27.1216 30.5205 26.4514 31.1582Z" fill="#F4F6F5" stroke="#F4F6F5"/>
</g>
</svg>
