<svg width="35" height="35" viewBox="0 0 35 35" fill="none" xmlns="http://www.w3.org/2000/svg">
<g id="icon doctor">
<g id="Group">
<g id="Group_2">
<path id="Vector" d="M21.5875 1.36255H17.4998V3.91728H20.31V8.72868C20.31 12.9547 16.8718 16.3929 12.6458 16.3929C8.41981 16.3929 4.98161 12.9547 4.98161 8.72875V3.91728H7.70668V1.36255H3.70424C2.99871 1.36255 2.42688 1.93437 2.42688 2.63991V8.72875C2.42688 14.3637 7.01092 18.9477 12.6459 18.9477C18.2808 18.9477 22.8648 14.3637 22.8648 8.72875V2.63991C22.8648 1.93437 22.293 1.36255 21.5875 1.36255Z" fill="#1C1F1E"/>
</g>
</g>
<g id="Group_3">
<g id="Group_4">
<path id="Vector_2" d="M26.5691 20.0122V26.0584C26.5691 29.5801 23.7039 32.4453 20.1822 32.4453C16.6605 32.4453 13.7953 29.5801 13.7953 26.0584V17.7129H11.2406V26.0584C11.2406 30.9886 15.2515 35 20.1822 35C25.1124 35 29.1238 30.9886 29.1238 26.0584V20.0122H26.5691Z" fill="#1C1F1E"/>
</g>
</g>
<g id="Group_5">
<g id="Group_6">
<path id="Vector_3" d="M27.8469 11.7518C25.2403 11.7518 23.1202 13.8718 23.1202 16.4781C23.1202 19.0839 25.2403 21.2044 27.8465 21.2044C30.4528 21.2044 32.5728 19.0839 32.5732 16.4781C32.5732 13.8718 30.4528 11.7518 27.8469 11.7518ZM27.8465 18.6496C26.6488 18.6496 25.6746 17.6755 25.6746 16.4781C25.6746 15.2808 26.6487 14.3066 27.8465 14.3066C29.0439 14.3066 30.018 15.2808 30.018 16.4781C30.018 17.6755 29.0439 18.6496 27.8465 18.6496Z" fill="#1C1F1E"/>
</g>
</g>
<g id="Group_7">
<g id="Group_8">
<path id="Vector_4" d="M7.66408 0C6.95854 0 6.38672 0.571826 6.38672 1.27736V4.00244C6.38672 4.70798 6.95854 5.2798 7.66408 5.2798C8.36962 5.2798 8.94145 4.70798 8.94145 4.00244V1.27736C8.94145 0.571826 8.36962 0 7.66408 0Z" fill="#1C1F1E"/>
</g>
</g>
<g id="Group_9">
<g id="Group_10">
<path id="Vector_5" d="M17.5424 0C16.8368 0 16.265 0.571826 16.265 1.27736V4.00244C16.265 4.70798 16.8368 5.2798 17.5424 5.2798C18.2479 5.2798 18.8197 4.70798 18.8197 4.00244V1.27736C18.8197 0.571826 18.2479 0 17.5424 0Z" fill="#1C1F1E"/>
</g>
</g>
</g>
</svg>
